<svg xmlns="http://www.w3.org/2000/svg" width="80" height="80" viewBox="0 0 80 80"><defs><style>.cls-1,.cls-5{fill:none;}.cls-1,.cls-3{stroke:#ff9151;}.cls-1,.cls-3,.cls-4,.cls-5{stroke-miterlimit:10;stroke-width:2px;}.cls-2,.cls-3,.cls-4{fill:#fff;}.cls-4,.cls-5{stroke:#98a8b0;}</style></defs><title>icons-features-outlines-finalPP</title><g id="Layer_1" data-name="Layer 1"><line class="cls-1" x1="53" y1="44" x2="53" y2="4"/><line class="cls-1" x1="33" y1="24" x2="73" y2="24"/><line class="cls-1" x1="38.86" y1="38.14" x2="67.14" y2="9.86"/><line class="cls-1" x1="38.86" y1="9.86" x2="67.14" y2="38.14"/><circle class="cls-2" cx="53" cy="24" r="15"/><circle class="cls-3" cx="53" cy="24" r="12"/><path class="cls-4" d="M58.93,60a16.15,16.15,0,0,0,0-32.31,15.94,15.94,0,0,0-10.07,3.58A22.39,22.39,0,1,0,26.8,60v0"/><path class="cls-4" d="M45.39,35.15a16,16,0,0,1,13.54-7.46"/><line class="cls-5" x1="54.73" y1="67.11" x2="55.82" y2="70"/><line class="cls-5" x1="49.82" y1="54" x2="53.91" y2="64.92"/><line class="cls-5" x1="46.93" y1="70.3" x2="48.98" y2="75.76"/><line class="cls-5" x1="41.95" y1="57.03" x2="45.91" y2="67.59"/><line class="cls-5" x1="38.12" y1="68.95" x2="39.02" y2="71.36"/><line class="cls-5" x1="32" y1="52.63" x2="37.11" y2="66.26"/></g></svg>
